<!DOCTYPE svg PUBLIC "-//W3C//DTD SVG 20010904//EN" "http://www.w3.org/TR/2001/REC-SVG-20010904/DTD/svg10.dtd">
<svg version="1.0" xmlns="http://www.w3.org/2000/svg" width="269px" height="270px" viewBox="0 0 2690 2700" preserveAspectRatio="xMidYMid meet">
<g id="layer101" fill="#2e3192" stroke="none">
 <path d="M1250 2403 c-36 -8 -87 -14 -113 -14 -49 1 -163 -24 -183 -40 -6 -5 -46 -27 -90 -50 -118 -61 -143 -78 -159 -107 -8 -15 -53 -67 -101 -117 -95 -98 -214 -237 -232 -272 -7 -12 -12 -39 -12 -61 0 -22 -7 -57 -16 -78 -9 -22 -20 -66 -24 -99 -4 -33 -15 -89 -25 -124 -18 -66 -17 -108 5 -206 6 -27 11 -79 11 -114 -1 -54 3 -71 25 -104 14 -21 32 -60 40 -86 18 -63 140 -242 226 -333 32 -34 40 -38 57 -28 21 11 29 54 12 64 -8 5 -34 42 -159 223 -18 27 -41 77 -52 113 -11 36 -29 75 -40 88 -15 18 -18 33 -13 71 3 29 -1 82 -12 132 -17 88 -15 143 11 204 8 19 14 53 14 75 0 22 12 68 26 101 17 41 23 70 19 89 -5 24 5 41 76 125 45 54 115 130 154 169 40 39 80 83 90 98 19 31 210 141 274 158 23 6 60 10 84 9 23 -2 74 5 112 15 77 19 196 18 250 -2 92 -34 197 -62 233 -62 32 0 47 -7 74 -34 22 -22 49 -37 74 -42 66 -12 70 -16 245 -232 54 -65 80 -76 103 -40 12 19 -6 48 -101 162 -112 134 -165 183 -208 191 -28 5 -50 18 -76 46 -32 35 -41 39 -84 39 -45 0 -155 30 -257 71 -57 23 -164 24 -258 2z"/>
 <path d="M1340 2228 c-247 -19 -277 -25 -353 -63 -129 -67 -151 -83 -230 -172 -124 -140 -217 -272 -217 -309 0 -18 -9 -51 -20 -75 -11 -24 -20 -56 -20 -71 0 -15 -12 -63 -26 -105 -24 -70 -25 -82 -14 -123 6 -25 15 -82 19 -128 5 -53 14 -89 24 -100 9 -10 23 -37 31 -60 25 -70 171 -276 239 -337 63 -56 84 -64 105 -43 22 22 12 43 -46 93 -66 56 -124 149 -226 362 -13 28 -22 61 -19 71 2 11 -3 57 -12 102 -16 80 -16 84 3 144 12 33 24 79 28 101 4 22 13 52 20 67 8 15 14 41 14 58 0 37 122 208 221 309 88 90 204 152 304 162 39 4 112 12 164 19 86 10 100 10 172 -10 43 -11 94 -27 114 -35 19 -8 46 -15 60 -15 17 0 35 -11 51 -29 14 -17 41 -33 67 -40 32 -7 57 -24 90 -60 25 -27 51 -52 56 -56 17 -10 51 14 51 35 0 30 -115 147 -152 155 -17 4 -45 23 -63 42 -24 26 -42 36 -76 40 -24 3 -56 12 -71 19 -25 13 -106 37 -173 52 -16 4 -68 4 -115 0z"/>
 <path d="M1295 2039 c-66 -5 -140 -13 -165 -19 -118 -29 -271 -149 -315 -247 -13 -29 -37 -72 -53 -95 -16 -24 -34 -61 -39 -83 -13 -45 -25 -81 -61 -177 -24 -66 -25 -68 -8 -132 9 -36 16 -76 16 -90 0 -13 16 -53 36 -88 20 -34 52 -94 70 -133 44 -89 146 -187 257 -245 78 -41 109 -45 121 -15 10 27 -3 39 -79 79 -119 61 -183 131 -261 286 -35 70 -64 138 -64 150 0 12 -5 42 -11 67 -10 39 -9 52 8 96 25 63 52 143 60 177 3 14 19 44 35 68 16 23 38 62 48 85 26 58 102 133 176 174 69 37 160 53 328 54 74 1 104 -3 159 -24 38 -14 81 -36 95 -50 15 -14 41 -32 57 -40 17 -9 47 -32 68 -51 21 -20 44 -36 51 -36 17 0 36 21 36 41 0 18 -102 119 -120 119 -7 0 -25 14 -41 31 -26 28 -77 53 -174 83 -65 21 -104 24 -230 15z"/>
 <path d="M1417 1864 c-3 -4 -59 -7 -124 -9 -107 -1 -124 -4 -177 -30 -83 -39 -166 -121 -166 -162 0 -18 -20 -72 -43 -121 -24 -49 -47 -98 -51 -108 -3 -11 -13 -30 -21 -44 -8 -14 -15 -37 -15 -51 0 -36 35 -135 58 -164 11 -14 23 -44 26 -68 6 -36 17 -53 74 -108 38 -36 90 -78 116 -94 l48 -28 20 20 c26 27 17 44 -45 83 -26 16 -52 41 -57 54 -5 13 -22 32 -38 42 -24 14 -31 26 -36 63 -3 26 -16 62 -29 81 -13 19 -29 54 -36 78 -11 38 -10 46 7 70 11 15 23 38 27 52 4 14 25 59 46 101 22 41 39 89 39 107 0 23 9 38 38 62 71 58 115 73 226 75 56 1 109 5 118 9 27 12 85 -12 138 -58 132 -113 151 -126 171 -116 34 19 23 55 -32 102 -28 24 -69 61 -92 84 -52 51 -169 99 -190 78z"/>
 <path d="M1994 1856 c-9 -24 -1 -47 22 -62 17 -12 23 -12 39 0 16 12 18 19 10 43 -12 32 -61 46 -71 19z"/>
 <path d="M2236 1825 c-9 -9 -16 -18 -16 -19 0 -2 13 -32 29 -67 15 -35 36 -88 45 -116 15 -44 22 -53 41 -53 43 0 47 29 16 117 -47 137 -78 174 -115 138z"/>
 <path d="M2063 1744 c-3 -10 -1 -31 6 -48 7 -17 24 -64 38 -104 27 -78 49 -100 79 -78 16 12 17 19 6 64 -6 28 -25 81 -41 117 -26 56 -33 65 -56 65 -15 0 -28 -7 -32 -16z"/>
 <path d="M1305 1720 c-64 -4 -102 -12 -132 -28 -67 -35 -110 -78 -117 -117 -4 -19 -27 -78 -52 -132 -44 -93 -45 -99 -34 -143 6 -25 20 -59 31 -76 10 -17 19 -41 19 -53 0 -13 12 -35 28 -51 15 -15 32 -36 38 -46 25 -42 74 -23 74 27 0 28 -30 69 -50 69 -5 0 -13 12 -16 28 -4 15 -18 47 -31 71 -12 24 -23 50 -23 58 0 7 20 57 45 110 25 53 45 104 45 114 0 17 41 54 87 78 31 16 212 22 237 9 12 -6 42 -29 67 -50 48 -40 67 -46 87 -26 22 22 12 44 -40 89 -53 45 -124 80 -156 77 -9 -1 -57 -4 -107 -8z"/>
 <path d="M1870 1710 c-8 -16 -5 -31 20 -78 16 -31 38 -82 48 -112 17 -50 22 -55 48 -55 38 0 42 26 14 109 -42 126 -102 189 -130 136z"/>
 <path d="M1318 1590 c-101 -10 -136 -39 -182 -148 -42 -101 -43 -112 -15 -185 25 -65 71 -120 94 -111 33 13 38 43 13 82 -39 61 -48 81 -48 104 1 35 54 147 79 164 12 9 51 18 86 20 62 4 65 3 110 -36 25 -22 48 -40 51 -40 18 0 44 24 44 39 0 33 -122 126 -157 120 -4 -1 -38 -5 -75 -9z"/>
 <path d="M1758 1569 c-23 -13 -22 -30 2 -99 11 -30 19 -71 20 -90 0 -55 41 -80 71 -44 17 21 -1 128 -33 192 -25 50 -34 57 -60 41z"/>
 <path d="M1628 1539 c-23 -13 -23 -27 2 -80 11 -24 20 -56 20 -71 0 -34 35 -61 62 -47 22 12 23 39 3 106 -14 48 -48 103 -63 103 -4 0 -15 -5 -24 -11z"/>
 <path d="M2332 1503 c-6 -10 -6 -27 -1 -41 19 -50 72 -33 67 22 -2 25 -8 32 -30 34 -18 2 -30 -3 -36 -15z"/>
 <path d="M1326 1460 c-68 -21 -108 -97 -86 -164 20 -62 106 -101 128 -58 13 24 4 42 -24 52 -29 11 -38 31 -30 64 14 58 86 33 86 -29 0 -66 55 -71 74 -7 15 53 -37 130 -99 145 -11 3 -33 1 -49 -3z"/>
 <path d="M2162 1457 c-14 -17 -18 -235 -4 -249 5 -5 20 -8 33 -6 18 2 25 12 32 43 12 54 3 190 -13 209 -15 19 -34 20 -48 3z"/>
 <path d="M1533 1428 c-5 -7 -9 -53 -9 -103 1 -84 2 -90 23 -93 33 -5 53 33 53 100 0 31 -4 68 -10 82 -10 28 -41 35 -57 14z"/>
 <path d="M1976 1398 c-3 -7 -7 -47 -11 -88 -3 -41 -11 -93 -16 -114 -9 -34 -8 -42 9 -58 48 -49 88 52 80 202 -3 63 -4 65 -31 68 -16 2 -29 -2 -31 -10z"/>
 <path d="M2350 1370 c-16 -16 -20 -33 -20 -87 -1 -38 -5 -87 -9 -110 -10 -49 4 -77 35 -71 30 5 45 51 51 162 6 99 5 104 -15 115 -18 9 -25 8 -42 -9z"/>
 <path d="M1654 1283 c-20 -57 -55 -123 -87 -161 -30 -36 -35 -47 -27 -63 16 -30 42 -23 87 24 53 54 86 119 87 171 1 38 -1 41 -27 44 -19 2 -29 -2 -33 -15z"/>
 <path d="M1778 1254 c-15 -32 0 -59 33 -59 17 0 26 8 33 27 18 52 -43 83 -66 32z"/>
 <path d="M1476 1211 c-21 -23 -18 -49 6 -65 13 -8 22 -5 43 14 29 28 30 33 9 54 -21 21 -37 20 -58 -3z"/>
 <path d="M1267 1168 c-10 -5 -17 -20 -17 -34 0 -31 31 -44 111 -44 46 0 63 4 79 20 17 17 18 24 9 41 -9 19 -17 21 -57 15 -26 -3 -61 -2 -78 3 -18 5 -37 5 -47 -1z"/>
 <path d="M1719 1113 c-17 -27 -50 -67 -73 -91 -33 -35 -39 -46 -30 -60 21 -32 49 -25 98 25 68 68 100 126 86 152 -18 35 -46 25 -81 -26z"/>
 <path d="M2128 1134 c-15 -32 0 -59 33 -59 17 0 26 8 33 27 18 52 -43 83 -66 32z"/>
 <path d="M1900 1061 c-14 -27 -13 -46 5 -61 32 -26 84 26 63 63 -12 23 -55 22 -68 -2z"/>
 <path d="M1195 1056 c-10 -7 -15 -22 -13 -36 2 -20 14 -28 58 -42 95 -29 150 -21 150 24 0 22 -29 38 -68 38 -16 0 -48 6 -70 14 -32 12 -44 12 -57 2z"/>
 <path d="M1440 1040 c-16 -16 -18 -25 -10 -40 13 -24 52 -26 74 -4 19 18 19 20 6 45 -14 25 -45 24 -70 -1z"/>
 <path d="M2296 1044 c-9 -8 -16 -21 -16 -28 0 -7 -18 -49 -40 -95 -44 -91 -47 -103 -25 -121 27 -23 54 -1 89 73 49 104 62 153 46 172 -16 19 -34 19 -54 -1z"/>
 <path d="M2092 1028 c-5 -7 -20 -33 -32 -58 -13 -25 -36 -64 -51 -87 -34 -49 -36 -68 -10 -83 27 -14 27 -14 56 18 22 23 105 170 105 185 0 11 -32 37 -44 37 -8 0 -18 -6 -24 -12z"/>
 <path d="M1811 928 c-14 -17 -53 -53 -88 -81 -65 -50 -73 -70 -41 -91 25 -16 76 14 154 92 66 65 73 79 52 100 -20 20 -52 12 -77 -20z"/>
 <path d="M1480 930 c-30 -10 -71 -19 -90 -19 -40 -1 -60 -16 -60 -43 0 -44 80 -46 195 -5 55 20 60 24 60 52 0 25 -4 30 -25 32 -14 1 -50 -7 -80 -17z"/>
 <path d="M1210 900 c-8 -15 -6 -24 10 -40 11 -11 26 -20 34 -20 16 0 46 26 46 40 0 17 -32 40 -55 40 -14 0 -29 -9 -35 -20z"/>
 <path d="M1909 764 c-8 -10 -47 -42 -86 -71 -74 -55 -84 -71 -58 -93 24 -20 58 -4 140 61 64 52 76 66 73 88 -4 32 -47 42 -69 15z"/>
 <path d="M1525 750 c-33 -10 -79 -19 -101 -19 -54 -1 -94 -31 -78 -58 30 -47 284 4 284 57 0 11 -29 40 -38 39 -4 -1 -34 -9 -67 -19z"/>
 <path d="M2140 745 c-19 -21 -22 -30 -14 -43 16 -24 42 -27 65 -6 24 22 24 50 0 64 -26 13 -24 14 -51 -15z"/>
 <path d="M1205 711 c-8 -25 0 -40 29 -51 32 -12 58 6 54 38 -3 23 -8 27 -40 30 -29 3 -38 -1 -43 -17z"/>
 <path d="M2035 630 c-15 -16 -55 -49 -87 -72 -62 -45 -77 -70 -58 -93 21 -26 44 -17 129 51 90 73 112 104 91 129 -19 23 -43 18 -75 -15z"/>
 <path d="M919 624 c-14 -17 -5 -40 24 -58 34 -22 73 28 47 59 -16 20 -54 19 -71 -1z"/>
 <path d="M1650 590 c-16 -16 -18 -25 -10 -40 14 -25 52 -26 74 -1 14 15 15 24 6 40 -14 27 -44 27 -70 1z"/>
 <path d="M1040 575 c-24 -29 -7 -49 62 -72 37 -13 91 -26 121 -29 50 -6 56 -5 67 17 11 20 10 25 -8 39 -12 10 -43 20 -71 24 -28 4 -69 13 -92 21 -52 19 -63 19 -79 0z"/>
 <path d="M706 554 c-21 -20 -20 -30 4 -54 23 -23 41 -25 58 -8 19 19 14 45 -10 62 -28 20 -33 20 -52 0z"/>
 <path d="M1525 559 c-16 -5 -63 -12 -103 -15 -58 -6 -75 -11 -83 -27 -9 -15 -7 -23 8 -39 18 -18 26 -18 109 -8 49 6 100 17 114 23 28 14 37 41 20 62 -14 17 -22 17 -65 4z"/>
 <path d="M820 475 c-31 -37 24 -79 162 -126 69 -24 70 -24 84 -5 22 31 -1 53 -84 86 -40 15 -84 35 -97 44 -30 20 -49 20 -65 1z"/>
 <path d="M1764 446 c-27 -12 -74 -31 -104 -41 -66 -21 -84 -36 -76 -63 10 -32 30 -33 108 -6 98 33 152 65 156 91 6 38 -28 45 -84 19z"/>
 <path d="M1134 366 c-9 -7 -14 -22 -12 -36 4 -30 32 -38 155 -47 98 -6 123 1 123 38 0 27 -31 39 -102 39 -35 1 -82 5 -105 9 -29 6 -48 4 -59 -3z"/>
 <path d="M1480 363 c-48 -17 -42 -73 8 -73 49 0 72 49 33 70 -11 5 -21 10 -23 9 -2 0 -10 -3 -18 -6z"/>
 </g>

</svg>